<svg xmlns="http://www.w3.org/2000/svg" xmlns:xlink="http://www.w3.org/1999/xlink" width="1630" zoomAndPan="magnify" viewBox="0 0 1222.5 841.49997" height="1122" preserveAspectRatio="xMidYMid meet" version="1.0"><defs><g/></defs><g fill="#008000" fill-opacity="1"><g transform="translate(94.165916, 447.249703)"><g><path d="M 49 0 C 42.125 0 36.289062 -2.394531 31.5 -7.1875 C 26.707031 -11.976562 24.3125 -17.8125 24.3125 -24.6875 L 24.3125 -204.484375 C 24.3125 -221.921875 28.179688 -237.453125 35.921875 -251.078125 C 43.660156 -264.710938 54.34375 -275.398438 67.96875 -283.140625 C 81.601562 -290.878906 97.140625 -294.75 114.578125 -294.75 L 143.6875 -294.75 C 161.125 -294.75 176.660156 -290.878906 190.296875 -283.140625 C 203.929688 -275.398438 214.613281 -264.710938 222.34375 -251.078125 C 230.082031 -237.453125 233.953125 -221.921875 233.953125 -204.484375 L 233.953125 -24.6875 C 233.953125 -17.8125 231.617188 -11.976562 226.953125 -7.1875 C 222.285156 -2.394531 216.390625 0 209.265625 0 L 177.953125 0 C 171.078125 0 165.242188 -2.394531 160.453125 -7.1875 C 155.660156 -11.976562 153.265625 -17.8125 153.265625 -24.6875 L 153.265625 -68.53125 C 153.265625 -75.164062 150.929688 -80.816406 146.265625 -85.484375 C 141.597656 -90.148438 135.828125 -92.484375 128.953125 -92.484375 C 122.316406 -92.484375 116.664062 -90.148438 112 -85.484375 C 107.332031 -80.816406 105 -75.039062 105 -68.15625 L 105 -24.6875 C 105 -17.8125 102.664062 -11.976562 98 -7.1875 C 93.332031 -2.394531 87.4375 0 80.3125 0 Z M 128.953125 -141.109375 C 135.828125 -141.109375 141.597656 -143.441406 146.265625 -148.109375 C 150.929688 -152.773438 153.265625 -158.425781 153.265625 -165.0625 L 153.265625 -203.75 C 153.265625 -210.625 150.929688 -216.394531 146.265625 -221.0625 C 141.597656 -225.726562 135.828125 -228.0625 128.953125 -228.0625 C 122.316406 -228.0625 116.664062 -225.726562 112 -221.0625 C 107.332031 -216.394531 105 -210.625 105 -203.75 L 105 -165.0625 C 105 -158.425781 107.332031 -152.773438 112 -148.109375 C 116.664062 -143.441406 122.316406 -141.109375 128.953125 -141.109375 Z M 128.953125 -141.109375 "/></g></g></g><g fill="#008000" fill-opacity="1"><g transform="translate(352.430695, 447.249703)"><g><path d="M 49 0 C 42.125 0 36.289062 -2.394531 31.5 -7.1875 C 26.707031 -11.976562 24.3125 -17.8125 24.3125 -24.6875 L 24.3125 -270.0625 C 24.3125 -277.1875 26.707031 -283.082031 31.5 -287.75 C 36.289062 -292.414062 42.125 -294.75 49 -294.75 L 144.796875 -294.75 C 151.921875 -294.75 157.816406 -292.414062 162.484375 -287.75 C 167.148438 -283.082031 169.484375 -277.1875 169.484375 -270.0625 L 169.484375 -263.796875 C 169.484375 -257.171875 171.816406 -251.523438 176.484375 -246.859375 C 181.148438 -242.191406 186.800781 -239.859375 193.4375 -239.859375 C 200.3125 -239.859375 206.082031 -242.191406 210.75 -246.859375 C 215.414062 -251.523438 217.75 -257.171875 217.75 -263.796875 L 217.75 -270.0625 C 217.75 -277.1875 220.140625 -283.082031 224.921875 -287.75 C 229.710938 -292.414062 235.550781 -294.75 242.4375 -294.75 L 338.21875 -294.75 C 345.34375 -294.75 351.238281 -292.414062 355.90625 -287.75 C 360.570312 -283.082031 362.90625 -277.1875 362.90625 -270.0625 L 362.90625 -24.6875 C 362.90625 -17.8125 360.570312 -11.976562 355.90625 -7.1875 C 351.238281 -2.394531 345.34375 0 338.21875 0 L 306.90625 0 C 300.03125 0 294.195312 -2.394531 289.40625 -7.1875 C 284.613281 -11.976562 282.21875 -17.8125 282.21875 -24.6875 L 282.21875 -203.75 C 282.21875 -210.625 279.882812 -216.394531 275.21875 -221.0625 C 270.550781 -225.726562 264.78125 -228.0625 257.90625 -228.0625 C 251.269531 -228.0625 245.617188 -225.726562 240.953125 -221.0625 C 236.285156 -216.394531 233.953125 -210.625 233.953125 -203.75 L 233.953125 -25.421875 C 233.953125 -18.546875 231.617188 -12.585938 226.953125 -7.546875 C 222.285156 -2.515625 216.390625 0 209.265625 0 L 177.953125 0 C 170.828125 0 164.929688 -2.453125 160.265625 -7.359375 C 155.597656 -12.273438 153.265625 -18.296875 153.265625 -25.421875 L 153.265625 -203.75 C 153.265625 -210.625 150.929688 -216.394531 146.265625 -221.0625 C 141.597656 -225.726562 135.828125 -228.0625 128.953125 -228.0625 C 122.316406 -228.0625 116.664062 -225.726562 112 -221.0625 C 107.332031 -216.394531 105 -210.625 105 -203.75 L 105 -24.6875 C 105 -17.8125 102.664062 -11.976562 98 -7.1875 C 93.332031 -2.394531 87.4375 0 80.3125 0 Z M 49 0 "/></g></g></g><g fill="#008000" fill-opacity="1"><g transform="translate(739.643668, 447.249703)"><g><path d="M 49 0 C 42.125 0 36.289062 -2.394531 31.5 -7.1875 C 26.707031 -11.976562 24.3125 -17.8125 24.3125 -24.6875 L 24.3125 -270.0625 C 24.3125 -277.1875 26.707031 -283.082031 31.5 -287.75 C 36.289062 -292.414062 42.125 -294.75 49 -294.75 L 80.3125 -294.75 C 87.4375 -294.75 93.332031 -292.414062 98 -287.75 C 102.664062 -283.082031 105 -277.1875 105 -270.0625 L 105 -24.6875 C 105 -17.8125 102.664062 -11.976562 98 -7.1875 C 93.332031 -2.394531 87.4375 0 80.3125 0 Z M 49 0 "/></g></g></g><g fill="#008000" fill-opacity="1"><g transform="translate(868.960254, 447.249703)"><g><path d="M 49 0 C 42.125 0 36.289062 -2.394531 31.5 -7.1875 C 26.707031 -11.976562 24.3125 -17.8125 24.3125 -24.6875 L 24.3125 -204.484375 C 24.3125 -221.921875 28.179688 -237.453125 35.921875 -251.078125 C 43.660156 -264.710938 54.34375 -275.398438 67.96875 -283.140625 C 81.601562 -290.878906 97.140625 -294.75 114.578125 -294.75 L 143.6875 -294.75 C 161.125 -294.75 176.660156 -290.878906 190.296875 -283.140625 C 203.929688 -275.398438 214.613281 -264.710938 222.34375 -251.078125 C 230.082031 -237.453125 233.953125 -221.921875 233.953125 -204.484375 L 233.953125 -24.6875 C 233.953125 -17.8125 231.617188 -11.976562 226.953125 -7.1875 C 222.285156 -2.394531 216.390625 0 209.265625 0 L 177.953125 0 C 171.078125 0 165.242188 -2.394531 160.453125 -7.1875 C 155.660156 -11.976562 153.265625 -17.8125 153.265625 -24.6875 L 153.265625 -68.53125 C 153.265625 -75.164062 150.929688 -80.816406 146.265625 -85.484375 C 141.597656 -90.148438 135.828125 -92.484375 128.953125 -92.484375 C 122.316406 -92.484375 116.664062 -90.148438 112 -85.484375 C 107.332031 -80.816406 105 -75.039062 105 -68.15625 L 105 -24.6875 C 105 -17.8125 102.664062 -11.976562 98 -7.1875 C 93.332031 -2.394531 87.4375 0 80.3125 0 Z M 128.953125 -141.109375 C 135.828125 -141.109375 141.597656 -143.441406 146.265625 -148.109375 C 150.929688 -152.773438 153.265625 -158.425781 153.265625 -165.0625 L 153.265625 -203.75 C 153.265625 -210.625 150.929688 -216.394531 146.265625 -221.0625 C 141.597656 -225.726562 135.828125 -228.0625 128.953125 -228.0625 C 122.316406 -228.0625 116.664062 -225.726562 112 -221.0625 C 107.332031 -216.394531 105 -210.625 105 -203.75 L 105 -165.0625 C 105 -158.425781 107.332031 -152.773438 112 -148.109375 C 116.664062 -143.441406 122.316406 -141.109375 128.953125 -141.109375 Z M 128.953125 -141.109375 "/></g></g></g><g fill="#f39822" fill-opacity="1"><g transform="translate(102.226136, 711.702932)"><g><path d="M 92.34375 0 C 78.28125 0 65.753906 -3.113281 54.765625 -9.34375 C 43.785156 -15.582031 35.175781 -24.191406 28.9375 -35.171875 C 22.707031 -46.160156 19.59375 -58.679688 19.59375 -72.734375 L 19.59375 -164.78125 C 19.59375 -178.832031 22.707031 -191.347656 28.9375 -202.328125 C 35.175781 -213.316406 43.785156 -221.929688 54.765625 -228.171875 C 65.753906 -234.410156 78.28125 -237.53125 92.34375 -237.53125 L 115.796875 -237.53125 C 129.847656 -237.53125 142.363281 -234.410156 153.34375 -228.171875 C 164.332031 -221.929688 172.941406 -213.316406 179.171875 -202.328125 C 185.410156 -191.347656 188.53125 -178.832031 188.53125 -164.78125 L 188.53125 -72.734375 C 188.53125 -58.679688 185.410156 -46.160156 179.171875 -35.171875 C 172.941406 -24.191406 164.332031 -15.582031 153.34375 -9.34375 C 142.363281 -3.113281 129.847656 0 115.796875 0 Z M 103.921875 -53.734375 C 109.460938 -53.734375 114.113281 -55.613281 117.875 -59.375 C 121.632812 -63.132812 123.515625 -67.785156 123.515625 -73.328125 L 123.515625 -164.1875 C 123.515625 -169.726562 121.632812 -174.378906 117.875 -178.140625 C 114.113281 -181.898438 109.460938 -183.78125 103.921875 -183.78125 C 98.578125 -183.78125 94.023438 -181.898438 90.265625 -178.140625 C 86.503906 -174.378906 84.625 -169.726562 84.625 -164.1875 L 84.625 -73.328125 C 84.625 -67.785156 86.503906 -63.132812 90.265625 -59.375 C 94.023438 -55.613281 98.578125 -53.734375 103.921875 -53.734375 Z M 103.921875 -53.734375 "/></g></g></g><g fill="#f39822" fill-opacity="1"><g transform="translate(310.356598, 711.702932)"><g><path d="M 39.484375 0 C 33.941406 0 29.238281 -1.925781 25.375 -5.78125 C 21.519531 -9.644531 19.59375 -14.347656 19.59375 -19.890625 L 19.59375 -217.625 C 19.59375 -223.375 21.519531 -228.128906 25.375 -231.890625 C 29.238281 -235.648438 33.941406 -237.53125 39.484375 -237.53125 L 159.734375 -237.53125 C 165.472656 -237.53125 170.222656 -235.550781 173.984375 -231.59375 C 177.742188 -227.632812 179.625 -222.878906 179.625 -217.328125 L 179.625 -73.328125 C 179.625 -67.785156 181.503906 -63.132812 185.265625 -59.375 C 189.023438 -55.613281 193.578125 -53.734375 198.921875 -53.734375 C 204.460938 -53.734375 209.113281 -55.613281 212.875 -59.375 C 216.632812 -63.132812 218.515625 -67.785156 218.515625 -73.328125 L 218.515625 -217.625 C 218.515625 -223.375 220.445312 -228.128906 224.3125 -231.890625 C 228.175781 -235.648438 232.878906 -237.53125 238.421875 -237.53125 L 263.65625 -237.53125 C 269.394531 -237.53125 274.144531 -235.648438 277.90625 -231.890625 C 281.664062 -228.128906 283.546875 -223.375 283.546875 -217.625 L 283.546875 -19.890625 C 283.546875 -14.347656 281.664062 -9.644531 277.90625 -5.78125 C 274.144531 -1.925781 269.394531 0 263.65625 0 L 143.40625 0 C 137.863281 0 133.160156 -1.976562 129.296875 -5.9375 C 125.441406 -9.894531 123.515625 -14.644531 123.515625 -20.1875 L 123.515625 -164.484375 C 123.515625 -169.828125 121.632812 -174.378906 117.875 -178.140625 C 114.113281 -181.898438 109.460938 -183.78125 103.921875 -183.78125 C 98.578125 -183.78125 94.023438 -181.898438 90.265625 -178.140625 C 86.503906 -174.378906 84.625 -169.828125 84.625 -164.484375 L 84.625 -19.890625 C 84.625 -14.347656 82.738281 -9.644531 78.96875 -5.78125 C 75.207031 -1.925781 70.457031 0 64.71875 0 Z M 39.484375 0 "/></g></g></g><g fill="#f39822" fill-opacity="1"><g transform="translate(613.496671, 711.702932)"><g><path d="M 39.484375 0 C 33.941406 0 29.238281 -1.925781 25.375 -5.78125 C 21.519531 -9.644531 19.59375 -14.347656 19.59375 -19.890625 L 19.59375 -33.84375 C 19.59375 -39.582031 21.519531 -44.332031 25.375 -48.09375 C 29.238281 -51.851562 33.941406 -53.734375 39.484375 -53.734375 L 148.453125 -53.734375 C 153.992188 -53.734375 158.644531 -55.613281 162.40625 -59.375 C 166.164062 -63.132812 168.046875 -67.785156 168.046875 -73.328125 C 168.046875 -78.679688 166.164062 -83.285156 162.40625 -87.140625 C 158.644531 -91.003906 153.992188 -92.9375 148.453125 -92.9375 L 89.375 -92.9375 C 75.90625 -92.9375 63.925781 -95.953125 53.4375 -101.984375 C 42.945312 -108.023438 34.679688 -116.289062 28.640625 -126.78125 C 22.609375 -137.269531 19.59375 -149.242188 19.59375 -162.703125 L 19.59375 -167.75 C 19.59375 -181.207031 22.609375 -193.179688 28.640625 -203.671875 C 34.679688 -214.160156 42.945312 -222.425781 53.4375 -228.46875 C 63.925781 -234.507812 75.90625 -237.53125 89.375 -237.53125 L 213.171875 -237.53125 C 218.910156 -237.53125 223.660156 -235.648438 227.421875 -231.890625 C 231.191406 -228.128906 233.078125 -223.375 233.078125 -217.625 L 233.078125 -203.671875 C 233.078125 -198.128906 231.191406 -193.425781 227.421875 -189.5625 C 223.660156 -185.707031 218.910156 -183.78125 213.171875 -183.78125 L 103.921875 -183.78125 C 98.578125 -183.78125 94.023438 -181.898438 90.265625 -178.140625 C 86.503906 -174.378906 84.625 -169.726562 84.625 -164.1875 C 84.625 -158.84375 86.503906 -154.289062 90.265625 -150.53125 C 94.023438 -146.769531 98.578125 -144.890625 103.921875 -144.890625 L 163.296875 -144.890625 C 176.753906 -144.890625 188.726562 -141.867188 199.21875 -135.828125 C 209.707031 -129.796875 217.972656 -121.535156 224.015625 -111.046875 C 230.054688 -100.554688 233.078125 -88.582031 233.078125 -75.125 L 233.078125 -69.765625 C 233.078125 -56.304688 230.054688 -44.332031 224.015625 -33.84375 C 217.972656 -23.351562 209.707031 -15.085938 199.21875 -9.046875 C 188.726562 -3.015625 176.753906 0 163.296875 0 Z M 39.484375 0 "/></g></g></g><g fill="#f39822" fill-opacity="1"><g transform="translate(866.162908, 711.702932)"><g><path d="M 39.484375 0 C 33.941406 0 29.238281 -1.925781 25.375 -5.78125 C 21.519531 -9.644531 19.59375 -14.347656 19.59375 -19.890625 L 19.59375 -217.625 C 19.59375 -223.375 21.519531 -228.128906 25.375 -231.890625 C 29.238281 -235.648438 33.941406 -237.53125 39.484375 -237.53125 L 213.46875 -237.53125 C 219.207031 -237.53125 223.957031 -235.648438 227.71875 -231.890625 C 231.488281 -228.128906 233.375 -223.375 233.375 -217.625 L 233.375 -203.671875 C 233.375 -198.128906 231.488281 -193.425781 227.71875 -189.5625 C 223.957031 -185.707031 219.207031 -183.78125 213.46875 -183.78125 L 103.921875 -183.78125 C 98.578125 -183.78125 94.023438 -181.898438 90.265625 -178.140625 C 86.503906 -174.378906 84.625 -169.726562 84.625 -164.1875 C 84.625 -158.84375 86.503906 -154.289062 90.265625 -150.53125 C 94.023438 -146.769531 98.578125 -144.890625 103.921875 -144.890625 L 201.59375 -144.890625 C 207.332031 -144.890625 212.082031 -143.007812 215.84375 -139.25 C 219.601562 -135.488281 221.484375 -130.738281 221.484375 -125 L 221.484375 -113.125 C 221.484375 -107.382812 219.550781 -102.582031 215.6875 -98.71875 C 211.832031 -94.863281 207.132812 -92.9375 201.59375 -92.9375 L 103.921875 -92.9375 C 98.578125 -92.9375 94.023438 -91.003906 90.265625 -87.140625 C 86.503906 -83.285156 84.625 -78.679688 84.625 -73.328125 C 84.625 -67.785156 86.503906 -63.132812 90.265625 -59.375 C 94.023438 -55.613281 98.578125 -53.734375 103.921875 -53.734375 L 213.46875 -53.734375 C 219.207031 -53.734375 223.957031 -51.851562 227.71875 -48.09375 C 231.488281 -44.332031 233.375 -39.582031 233.375 -33.84375 L 233.375 -19.890625 C 233.375 -14.347656 231.488281 -9.644531 227.71875 -5.78125 C 223.957031 -1.925781 219.207031 0 213.46875 0 Z M 39.484375 0 "/></g></g></g></svg>