<svg xmlns="http://www.w3.org/2000/svg" xmlns:xlink="http://www.w3.org/1999/xlink" width="159" zoomAndPan="magnify" viewBox="0 0 119.25 244.499994" height="326" preserveAspectRatio="xMidYMid meet" version="1.0"><defs><clipPath id="8d9f3f3f80"><path d="M 15.847656 0.515625 L 100.8125 0.515625 L 100.8125 77.28125 L 15.847656 77.28125 Z M 15.847656 0.515625 " clip-rule="nonzero"/></clipPath><clipPath id="9a6be3049c"><path d="M 14.800781 80 L 102 80 L 102 124.480469 L 14.800781 124.480469 Z M 14.800781 80 " clip-rule="nonzero"/></clipPath><clipPath id="8e29d50d9e"><path d="M 0 77.523438 L 117.757812 77.523438 L 117.757812 242.984375 L 0 242.984375 Z M 0 77.523438 " clip-rule="nonzero"/></clipPath></defs><g clip-path="url(#8d9f3f3f80)"><path fill="#008000" d="M 98.679688 8.132812 C 88.417969 8.132812 73.925781 8.988281 66.515625 16.394531 C 63.308594 19.601562 61.707031 24.828125 62.125 30.746094 C 62.179688 31.527344 62.699219 32.195312 63.445312 32.441406 C 64.1875 32.683594 65.003906 32.457031 65.511719 31.859375 C 69.632812 27.011719 74.753906 23.125 80.742188 20.3125 C 81.25 20.070312 81.851562 20.050781 82.398438 20.242188 C 82.878906 20.417969 83.257812 20.742188 83.453125 21.164062 C 83.863281 22.027344 83.730469 23.160156 82.375 23.800781 C 82.296875 23.839844 82.230469 23.890625 82.152344 23.921875 C 82.125 23.933594 82.09375 23.929688 82.070312 23.941406 C 67.308594 30.878906 60.054688 42.984375 56.757812 55.433594 C 54.355469 39.847656 49.28125 30.671875 44.488281 25.039062 C 41.019531 20.542969 37.609375 18.160156 35.636719 16.8125 C 35.269531 16.5625 34.164062 15.808594 33.707031 15.351562 C 32.957031 14.597656 32.957031 13.378906 33.707031 12.628906 C 34.457031 11.878906 35.683594 11.878906 36.519531 12.710938 C 36.722656 12.894531 37.050781 13.125 37.464844 13.402344 L 37.808594 13.632812 C 40.59375 15.542969 45.785156 19.089844 50.390625 26.722656 C 50.800781 27.402344 51.597656 27.769531 52.371094 27.625 C 53.15625 27.484375 53.773438 26.878906 53.925781 26.097656 C 54.933594 20.96875 54.480469 13.351562 49.90625 8.773438 C 42.496094 1.375 28 0.515625 17.746094 0.515625 C 16.683594 0.515625 15.820312 1.378906 15.820312 2.441406 C 15.820312 12.699219 16.679688 27.195312 24.082031 34.605469 C 27.171875 37.691406 31.933594 39.078125 36.664062 39.078125 C 40.527344 39.078125 44.308594 38.109375 47.210938 36.4375 C 51.164062 44.628906 54.320312 56.867188 54.320312 75.589844 C 54.320312 76.652344 55.183594 77.515625 56.246094 77.515625 C 57.308594 77.515625 58.171875 76.652344 58.171875 75.589844 C 58.171875 65.144531 59.960938 52.609375 66.617188 42.292969 C 69.285156 44.898438 73.878906 46.550781 78.96875 46.703125 C 79.222656 46.710938 79.472656 46.714844 79.722656 46.714844 C 84.894531 46.714844 89.464844 45.09375 92.339844 42.214844 C 99.746094 34.808594 100.601562 20.3125 100.601562 10.050781 C 100.605469 8.988281 99.746094 8.132812 98.679688 8.132812 Z M 98.679688 8.132812 " fill-opacity="1" fill-rule="nonzero"/></g><g clip-path="url(#9a6be3049c)"><path fill="#f39822" d="M 101.628906 124.367188 L 14.800781 124.367188 C 15.179688 108.882812 21.148438 96.476562 33.898438 88.011719 C 48.835938 78.09375 64.644531 77.574219 80.132812 86.558594 C 94.28125 94.765625 101.019531 107.695312 101.632812 124.367188 Z M 101.628906 124.367188 " fill-opacity="1" fill-rule="nonzero"/></g><g clip-path="url(#8e29d50d9e)"><path fill="#008000" d="M 58.980469 203.40625 C 60.394531 203.402344 61.808594 203.332031 63.214844 203.191406 C 64.625 203.050781 66.023438 202.839844 67.410156 202.5625 C 68.800781 202.285156 70.171875 201.9375 71.523438 201.527344 C 72.878906 201.113281 74.210938 200.636719 75.519531 200.09375 C 76.824219 199.550781 78.101562 198.945312 79.351562 198.277344 C 80.601562 197.609375 81.8125 196.878906 82.988281 196.09375 C 84.164062 195.304688 85.300781 194.464844 86.394531 193.566406 C 87.488281 192.667969 88.539062 191.714844 89.539062 190.714844 C 90.539062 189.714844 91.488281 188.667969 92.386719 187.570312 C 93.285156 186.476562 94.128906 185.34375 94.917969 184.164062 C 95.703125 182.988281 96.429688 181.777344 97.097656 180.527344 C 97.769531 179.28125 98.375 178.003906 98.917969 176.695312 C 99.460938 175.386719 99.9375 174.054688 100.351562 172.703125 C 100.761719 171.347656 101.109375 169.976562 101.386719 168.585938 C 101.664062 167.199219 101.875 165.800781 102.015625 164.390625 C 102.15625 162.984375 102.226562 161.570312 102.230469 160.15625 L 102.230469 120.835938 C 102.230469 119.417969 102.160156 118.007812 102.019531 116.597656 C 101.882812 115.1875 101.675781 113.789062 101.398438 112.398438 C 101.121094 111.007812 100.777344 109.636719 100.367188 108.28125 C 99.957031 106.925781 99.480469 105.59375 98.9375 104.285156 C 98.394531 102.976562 97.789062 101.695312 97.121094 100.449219 C 96.453125 99.199219 95.726562 97.984375 94.941406 96.808594 C 94.152344 95.628906 93.3125 94.492188 92.414062 93.398438 C 91.511719 92.304688 90.5625 91.253906 89.5625 90.253906 C 88.558594 89.25 87.511719 88.300781 86.417969 87.402344 C 85.320312 86.503906 84.183594 85.660156 83.007812 84.875 C 81.828125 84.085938 80.617188 83.359375 79.367188 82.691406 C 78.117188 82.023438 76.839844 81.417969 75.53125 80.878906 C 74.222656 80.335938 72.890625 79.859375 71.535156 79.449219 C 70.179688 79.035156 68.804688 78.691406 67.417969 78.417969 C 66.027344 78.140625 64.628906 77.933594 63.21875 77.792969 C 61.808594 77.65625 60.394531 77.585938 58.980469 77.585938 C 57.5625 77.585938 56.148438 77.65625 54.738281 77.792969 C 53.328125 77.933594 51.929688 78.140625 50.539062 78.417969 C 49.152344 78.691406 47.777344 79.035156 46.421875 79.449219 C 45.066406 79.859375 43.734375 80.335938 42.425781 80.878906 C 41.117188 81.417969 39.839844 82.023438 38.589844 82.691406 C 37.339844 83.359375 36.128906 84.085938 34.949219 84.875 C 33.773438 85.660156 32.636719 86.503906 31.539062 87.402344 C 30.445312 88.300781 29.398438 89.25 28.394531 90.253906 C 27.394531 91.253906 26.445312 92.304688 25.546875 93.398438 C 24.648438 94.492188 23.804688 95.628906 23.015625 96.808594 C 22.230469 97.984375 21.503906 99.199219 20.835938 100.449219 C 20.167969 101.695312 19.5625 102.976562 19.019531 104.285156 C 18.476562 105.59375 18 106.925781 17.589844 108.28125 C 17.179688 109.636719 16.835938 111.007812 16.558594 112.398438 C 16.28125 113.789062 16.074219 115.1875 15.9375 116.597656 C 15.796875 118.007812 15.726562 119.417969 15.726562 120.835938 L 15.726562 160.15625 C 15.730469 161.570312 15.800781 162.984375 15.941406 164.390625 C 16.085938 165.800781 16.292969 167.199219 16.570312 168.585938 C 16.851562 169.976562 17.195312 171.347656 17.609375 172.703125 C 18.019531 174.054688 18.496094 175.386719 19.039062 176.695312 C 19.582031 178.003906 20.191406 179.28125 20.859375 180.527344 C 21.527344 181.777344 22.253906 182.988281 23.039062 184.164062 C 23.828125 185.34375 24.671875 186.476562 25.570312 187.570312 C 26.46875 188.667969 27.417969 189.714844 28.417969 190.714844 C 29.417969 191.714844 30.46875 192.667969 31.5625 193.566406 C 32.65625 194.464844 33.792969 195.304688 34.96875 196.09375 C 36.144531 196.878906 37.359375 197.609375 38.605469 198.277344 C 39.855469 198.945312 41.132812 199.550781 42.4375 200.09375 C 43.746094 200.636719 45.078125 201.113281 46.433594 201.527344 C 47.785156 201.9375 49.15625 202.285156 50.546875 202.5625 C 51.933594 202.839844 53.332031 203.050781 54.742188 203.191406 C 56.152344 203.332031 57.5625 203.402344 58.980469 203.40625 Z M 23.589844 120.835938 C 23.589844 119.675781 23.648438 118.519531 23.761719 117.367188 C 23.875 116.214844 24.046875 115.070312 24.269531 113.933594 C 24.496094 112.796875 24.777344 111.671875 25.113281 110.5625 C 25.453125 109.453125 25.839844 108.363281 26.285156 107.292969 C 26.730469 106.222656 27.222656 105.175781 27.769531 104.15625 C 28.316406 103.132812 28.910156 102.140625 29.554688 101.175781 C 30.199219 100.210938 30.890625 99.28125 31.625 98.386719 C 32.359375 97.492188 33.136719 96.632812 33.957031 95.8125 C 34.777344 94.992188 35.632812 94.214844 36.527344 93.480469 C 37.425781 92.746094 38.355469 92.054688 39.320312 91.414062 C 40.28125 90.769531 41.273438 90.171875 42.296875 89.628906 C 43.320312 89.082031 44.367188 88.585938 45.4375 88.140625 C 46.507812 87.699219 47.597656 87.308594 48.707031 86.972656 C 49.816406 86.636719 50.9375 86.355469 52.074219 86.128906 C 53.210938 85.902344 54.355469 85.734375 55.511719 85.621094 C 56.664062 85.503906 57.820312 85.449219 58.980469 85.449219 C 60.136719 85.449219 61.292969 85.503906 62.445312 85.621094 C 63.601562 85.734375 64.746094 85.902344 65.882812 86.128906 C 67.019531 86.355469 68.140625 86.636719 69.25 86.972656 C 70.359375 87.308594 71.449219 87.699219 72.519531 88.140625 C 73.589844 88.585938 74.636719 89.082031 75.660156 89.628906 C 76.683594 90.171875 77.675781 90.769531 78.640625 91.414062 C 79.601562 92.054688 80.53125 92.746094 81.429688 93.480469 C 82.324219 94.214844 83.183594 94.992188 84 95.8125 C 84.820312 96.632812 85.597656 97.492188 86.332031 98.386719 C 87.070312 99.28125 87.757812 100.210938 88.402344 101.175781 C 89.046875 102.140625 89.640625 103.132812 90.1875 104.15625 C 90.734375 105.175781 91.230469 106.222656 91.671875 107.292969 C 92.117188 108.363281 92.503906 109.453125 92.84375 110.5625 C 93.179688 111.671875 93.460938 112.796875 93.6875 113.933594 C 93.910156 115.070312 94.082031 116.214844 94.195312 117.367188 C 94.308594 118.519531 94.367188 119.675781 94.367188 120.835938 L 94.367188 160.15625 C 94.367188 161.3125 94.308594 162.46875 94.195312 163.625 C 94.082031 164.777344 93.910156 165.921875 93.6875 167.058594 C 93.460938 168.195312 93.179688 169.320312 92.84375 170.425781 C 92.503906 171.535156 92.117188 172.625 91.671875 173.695312 C 91.230469 174.769531 90.734375 175.8125 90.1875 176.835938 C 89.640625 177.859375 89.046875 178.851562 88.402344 179.816406 C 87.757812 180.777344 87.070312 181.707031 86.332031 182.605469 C 85.597656 183.5 84.820312 184.359375 84 185.175781 C 83.183594 185.996094 82.324219 186.773438 81.429688 187.511719 C 80.53125 188.246094 79.601562 188.933594 78.640625 189.578125 C 77.675781 190.222656 76.683594 190.816406 75.660156 191.363281 C 74.636719 191.910156 73.589844 192.40625 72.519531 192.847656 C 71.449219 193.292969 70.359375 193.683594 69.25 194.019531 C 68.140625 194.355469 67.019531 194.636719 65.882812 194.863281 C 64.746094 195.089844 63.601562 195.257812 62.445312 195.371094 C 61.292969 195.484375 60.136719 195.542969 58.980469 195.542969 C 57.820312 195.542969 56.664062 195.484375 55.511719 195.371094 C 54.355469 195.257812 53.210938 195.089844 52.074219 194.863281 C 50.9375 194.636719 49.816406 194.355469 48.707031 194.019531 C 47.597656 193.683594 46.507812 193.292969 45.4375 192.847656 C 44.367188 192.40625 43.320312 191.910156 42.296875 191.363281 C 41.273438 190.816406 40.28125 190.222656 39.320312 189.578125 C 38.355469 188.933594 37.425781 188.246094 36.527344 187.511719 C 35.632812 186.773438 34.777344 185.996094 33.957031 185.175781 C 33.136719 184.359375 32.359375 183.5 31.625 182.605469 C 30.890625 181.707031 30.199219 180.777344 29.554688 179.816406 C 28.910156 178.851562 28.316406 177.859375 27.769531 176.835938 C 27.222656 175.8125 26.730469 174.769531 26.285156 173.695312 C 25.839844 172.625 25.453125 171.535156 25.113281 170.425781 C 24.777344 169.320312 24.496094 168.195312 24.269531 167.058594 C 24.046875 165.921875 23.875 164.777344 23.761719 163.625 C 23.648438 162.46875 23.589844 161.3125 23.589844 160.15625 Z M 62.910156 219.132812 L 62.910156 234.863281 L 82.570312 234.863281 C 82.828125 234.863281 83.085938 234.886719 83.335938 234.9375 C 83.589844 234.988281 83.835938 235.0625 84.074219 235.160156 C 84.3125 235.257812 84.539062 235.378906 84.753906 235.523438 C 84.96875 235.667969 85.167969 235.832031 85.351562 236.011719 C 85.53125 236.195312 85.695312 236.394531 85.839844 236.609375 C 85.984375 236.824219 86.105469 237.050781 86.203125 237.289062 C 86.300781 237.527344 86.375 237.773438 86.425781 238.027344 C 86.476562 238.28125 86.503906 238.535156 86.503906 238.792969 C 86.503906 239.050781 86.476562 239.308594 86.425781 239.558594 C 86.375 239.8125 86.300781 240.058594 86.203125 240.296875 C 86.105469 240.535156 85.984375 240.761719 85.839844 240.976562 C 85.695312 241.191406 85.53125 241.390625 85.351562 241.574219 C 85.167969 241.757812 84.96875 241.917969 84.753906 242.0625 C 84.539062 242.207031 84.3125 242.328125 84.074219 242.425781 C 83.835938 242.523438 83.589844 242.597656 83.335938 242.648438 C 83.085938 242.699219 82.828125 242.726562 82.570312 242.726562 L 35.386719 242.726562 C 35.128906 242.726562 34.875 242.699219 34.621094 242.648438 C 34.367188 242.597656 34.121094 242.523438 33.882812 242.425781 C 33.644531 242.328125 33.417969 242.207031 33.203125 242.0625 C 32.988281 241.917969 32.789062 241.757812 32.605469 241.574219 C 32.425781 241.390625 32.261719 241.191406 32.117188 240.976562 C 31.972656 240.761719 31.851562 240.535156 31.753906 240.296875 C 31.65625 240.058594 31.582031 239.8125 31.53125 239.558594 C 31.480469 239.308594 31.457031 239.050781 31.457031 238.792969 C 31.457031 238.535156 31.480469 238.28125 31.53125 238.027344 C 31.582031 237.773438 31.65625 237.527344 31.753906 237.289062 C 31.851562 237.050781 31.972656 236.824219 32.117188 236.609375 C 32.261719 236.394531 32.425781 236.195312 32.605469 236.011719 C 32.789062 235.832031 32.988281 235.667969 33.203125 235.523438 C 33.417969 235.378906 33.644531 235.257812 33.882812 235.160156 C 34.121094 235.0625 34.367188 234.988281 34.621094 234.9375 C 34.875 234.886719 35.128906 234.863281 35.386719 234.863281 L 55.046875 234.863281 L 55.046875 219.132812 C 53.199219 219.011719 51.359375 218.804688 49.53125 218.511719 C 47.699219 218.214844 45.890625 217.835938 44.097656 217.371094 C 42.300781 216.902344 40.535156 216.355469 38.792969 215.722656 C 37.050781 215.089844 35.34375 214.375 33.671875 213.582031 C 31.996094 212.789062 30.363281 211.917969 28.769531 210.96875 C 27.179688 210.023438 25.632812 209.003906 24.140625 207.910156 C 22.644531 206.816406 21.203125 205.652344 19.816406 204.425781 C 18.429688 203.195312 17.105469 201.902344 15.839844 200.546875 C 14.578125 199.195312 13.378906 197.78125 12.246094 196.316406 C 11.117188 194.847656 10.058594 193.332031 9.070312 191.761719 C 8.082031 190.195312 7.167969 188.585938 6.332031 186.929688 C 5.496094 185.277344 4.742188 183.589844 4.066406 181.863281 C 3.390625 180.136719 2.796875 178.386719 2.285156 176.605469 C 1.773438 174.824219 1.347656 173.023438 1.007812 171.203125 C 0.664062 169.378906 0.410156 167.546875 0.242188 165.703125 C 0.0742188 163.855469 -0.0078125 162.007812 0 160.15625 C 0 159.898438 0.0234375 159.640625 0.0742188 159.386719 C 0.125 159.136719 0.199219 158.890625 0.300781 158.652344 C 0.398438 158.410156 0.519531 158.183594 0.664062 157.96875 C 0.804688 157.757812 0.96875 157.558594 1.152344 157.375 C 1.335938 157.191406 1.53125 157.03125 1.746094 156.886719 C 1.960938 156.742188 2.1875 156.621094 2.425781 156.523438 C 2.664062 156.421875 2.910156 156.347656 3.164062 156.296875 C 3.417969 156.25 3.671875 156.222656 3.933594 156.222656 C 4.191406 156.222656 4.445312 156.25 4.699219 156.296875 C 4.953125 156.347656 5.199219 156.421875 5.4375 156.523438 C 5.675781 156.621094 5.902344 156.742188 6.117188 156.886719 C 6.332031 157.03125 6.53125 157.191406 6.710938 157.375 C 6.894531 157.558594 7.058594 157.757812 7.203125 157.96875 C 7.34375 158.183594 7.464844 158.410156 7.566406 158.652344 C 7.664062 158.890625 7.738281 159.136719 7.789062 159.386719 C 7.839844 159.640625 7.863281 159.898438 7.863281 160.15625 C 7.863281 161.828125 7.945312 163.5 8.109375 165.164062 C 8.273438 166.832031 8.519531 168.484375 8.847656 170.128906 C 9.171875 171.769531 9.578125 173.390625 10.066406 174.992188 C 10.550781 176.59375 11.113281 178.167969 11.753906 179.714844 C 12.394531 181.261719 13.109375 182.773438 13.898438 184.25 C 14.6875 185.726562 15.546875 187.160156 16.476562 188.554688 C 17.410156 189.945312 18.40625 191.289062 19.464844 192.582031 C 20.527344 193.875 21.652344 195.113281 22.835938 196.296875 C 24.019531 197.484375 25.257812 198.605469 26.550781 199.667969 C 27.847656 200.730469 29.1875 201.726562 30.582031 202.65625 C 31.972656 203.585938 33.40625 204.445312 34.882812 205.234375 C 36.359375 206.023438 37.871094 206.738281 39.417969 207.378906 C 40.964844 208.019531 42.539062 208.582031 44.140625 209.070312 C 45.742188 209.554688 47.363281 209.960938 49.007812 210.289062 C 50.648438 210.613281 52.300781 210.859375 53.96875 211.023438 C 55.632812 211.1875 57.304688 211.269531 58.980469 211.269531 C 60.652344 211.269531 62.324219 211.1875 63.988281 211.023438 C 65.65625 210.859375 67.308594 210.613281 68.949219 210.289062 C 70.59375 209.960938 72.214844 209.554688 73.816406 209.070312 C 75.417969 208.582031 76.992188 208.019531 78.539062 207.378906 C 80.085938 206.738281 81.597656 206.023438 83.074219 205.234375 C 84.550781 204.445312 85.984375 203.585938 87.375 202.65625 C 88.769531 201.726562 90.113281 200.730469 91.40625 199.667969 C 92.699219 198.605469 93.9375 197.484375 95.121094 196.296875 C 96.304688 195.113281 97.429688 193.875 98.492188 192.582031 C 99.554688 191.289062 100.550781 189.945312 101.480469 188.554688 C 102.410156 187.160156 103.269531 185.726562 104.058594 184.25 C 104.847656 182.773438 105.5625 181.261719 106.203125 179.714844 C 106.84375 178.167969 107.40625 176.59375 107.890625 174.992188 C 108.378906 173.390625 108.785156 171.769531 109.113281 170.128906 C 109.4375 168.484375 109.683594 166.832031 109.847656 165.164062 C 110.011719 163.5 110.09375 161.828125 110.09375 160.15625 C 110.09375 159.898438 110.117188 159.640625 110.167969 159.386719 C 110.21875 159.136719 110.292969 158.890625 110.394531 158.652344 C 110.492188 158.410156 110.613281 158.183594 110.757812 157.96875 C 110.898438 157.757812 111.0625 157.558594 111.246094 157.375 C 111.425781 157.191406 111.625 157.03125 111.839844 156.886719 C 112.054688 156.742188 112.28125 156.621094 112.519531 156.523438 C 112.757812 156.421875 113.003906 156.347656 113.257812 156.296875 C 113.511719 156.25 113.765625 156.222656 114.027344 156.222656 C 114.285156 156.222656 114.539062 156.25 114.792969 156.296875 C 115.046875 156.347656 115.292969 156.421875 115.53125 156.523438 C 115.769531 156.621094 115.996094 156.742188 116.210938 156.886719 C 116.425781 157.03125 116.625 157.191406 116.804688 157.375 C 116.988281 157.558594 117.152344 157.757812 117.292969 157.96875 C 117.4375 158.183594 117.558594 158.410156 117.65625 158.652344 C 117.757812 158.890625 117.832031 159.136719 117.882812 159.386719 C 117.933594 159.640625 117.957031 159.898438 117.957031 160.15625 C 117.964844 162.007812 117.882812 163.855469 117.714844 165.703125 C 117.546875 167.546875 117.292969 169.378906 116.953125 171.203125 C 116.609375 173.023438 116.183594 174.824219 115.671875 176.605469 C 115.164062 178.386719 114.570312 180.136719 113.890625 181.863281 C 113.214844 183.589844 112.460938 185.277344 111.625 186.929688 C 110.789062 188.585938 109.875 190.195312 108.886719 191.761719 C 107.898438 193.332031 106.839844 194.847656 105.710938 196.316406 C 104.578125 197.78125 103.382812 199.195312 102.117188 200.546875 C 100.851562 201.902344 99.527344 203.195312 98.140625 204.425781 C 96.753906 205.652344 95.3125 206.816406 93.820312 207.910156 C 92.324219 209.003906 90.777344 210.023438 89.1875 210.96875 C 87.59375 211.917969 85.960938 212.789062 84.289062 213.582031 C 82.613281 214.375 80.90625 215.089844 79.164062 215.722656 C 77.421875 216.355469 75.65625 216.902344 73.863281 217.371094 C 72.066406 217.835938 70.257812 218.214844 68.425781 218.511719 C 66.597656 218.804688 64.757812 219.011719 62.910156 219.132812 Z M 62.910156 219.132812 " fill-opacity="1" fill-rule="nonzero"/></g></svg>